<?xml version="1.0" ?><!-- Uploaded to: SVG Repo, www.svgrepo.com, Generator: SVG Repo Mixer Tools -->
<svg fill="#000000" width="16" height="16" viewBox="0 0 32 32" id="Outline" xmlns="http://www.w3.org/2000/svg"><path d="M25.52,29.25h-7.2a.76.76,0,0,1-.74-.6L16,20.9l-1.58,7.75a.76.76,0,0,1-.74.6H6.48a.74.74,0,0,1-.75-.73L5.25,12.85a.76.76,0,0,1,.08-.36l3.57-7a.76.76,0,0,1,.67-.41H22.43a.76.76,0,0,1,.67.41l3.57,7a.76.76,0,0,1,.08.36l-.48,15.67A.74.74,0,0,1,25.52,29.25Zm-6.59-1.5h5.86L25.24,13,22,6.55H10L6.76,13l.45,14.75h5.86L15.27,17a.74.74,0,0,1,1.46,0Z"/><path d="M22.21,6.55H9.79A.76.76,0,0,1,9,5.8V3.5a.76.76,0,0,1,.75-.75H22.21A.76.76,0,0,1,23,3.5V5.8A.76.76,0,0,1,22.21,6.55ZM10.54,5.05H21.46v-.8H10.54Z"/><path d="M10.22,14.83H6a.75.75,0,0,1-.75-.73l0-1.25a.76.76,0,0,1,.08-.36L6.6,10a.76.76,0,0,1,.67-.41h3a.76.76,0,0,1,.75.75v3.75A.76.76,0,0,1,10.22,14.83Zm-3.45-1.5h2.7V11.08H7.73L6.76,13Z"/><path d="M26,14.83H21.78a.76.76,0,0,1-.75-.75V10.33a.76.76,0,0,1,.75-.75h2.95a.76.76,0,0,1,.67.41l1.27,2.5a.76.76,0,0,1,.08.36l0,1.25A.75.75,0,0,1,26,14.83Zm-3.43-1.5h2.7V13l-1-1.92H22.53Z"/></svg>