<?xml version="1.0"?>
<svg width="16" height="16" xmlns="http://www.w3.org/2000/svg" xmlns:svg="http://www.w3.org/2000/svg" version="1.1" xml:space="preserve">
 <g class="layer">
  <title>Layer 1</title>
  <g id="svg_1" transform="translate(15.9653, 0.0522148) scale(1.02112, 1) translate(-15.9653, -0.0522148) translate(0.375762, 0.0522148) matrix(0.0427628, 0, 0, 0.0308777, -3.16127, 0.0411451)">
   <g id="svg_2">
    <path d="m436.9,63.91c-0.86,-2.24 -21.34,-55.47 -67.63,-52.48c-33.71,2.24 -49.6,-9.18 -49.6,-9.18c-4.69,-3.62 -11.31,-2.77 -14.93,1.82c-0.86,1.06 -1.5,2.34 -1.82,3.62c-0.64,1.92 -11.41,41.5 13.12,84.16c-13.76,2.03 -33.81,7.36 -59.84,20.7c-26.02,-13.44 -46.08,-18.78 -59.84,-20.7c24.54,-42.56 13.76,-82.13 13.23,-84.05c-1.71,-5.65 -7.68,-8.96 -13.33,-7.25c-1.18,0.32 -2.35,0.96 -3.31,1.71c-0.11,0.1 -16.11,11.52 -49.71,9.28c-46.29,-2.99 -66.77,50.13 -67.62,52.48c-1.18,3.09 -0.86,6.4 0.85,9.28c14.93,24.74 39.36,33.92 53.76,37.33c-3.84,32.21 8.96,51.2 20.37,68.05c1.92,2.77 3.84,5.65 5.65,8.64c10.99,17.28 22.83,63.36 -11.2,113.6c-37.65,55.68 -25.06,173.01 -24.53,178.03c0.43,3.62 2.67,6.82 5.97,8.42c3.1,1.5 52.59,25.07 127.15,25.07c45.01,-0.11 89.6,-8.43 131.63,-24.64c3.73,-1.39 6.4,-4.8 6.83,-8.75c0.53,-5.01 13.12,-122.34 -24.54,-177.92c-34.02,-50.24 -22.18,-96.21 -11.2,-113.6c1.82,-2.88 3.74,-5.76 5.66,-8.64c11.41,-16.96 24.1,-35.84 20.37,-68.05c14.4,-3.41 38.83,-12.69 53.76,-37.33c1.49,-3.1 1.81,-6.51 0.75,-9.6zm-67.63,27.3c-5.87,0.43 -10.35,5.44 -9.92,11.31c0,0.53 0.11,1.07 0.21,1.6c6.51,30.19 -3.09,44.48 -15.36,62.61c-2.02,2.99 -4.05,5.98 -5.97,9.07c-14.61,22.93 -28.59,77.65 11.52,136.96c28.59,42.24 23.57,132.27 21.55,157.12c-114.46,41.17 -207.47,9.6 -230.3,0.43c-2.02,-24.32 -7.14,-115.1 21.55,-157.55c40.11,-59.31 26.13,-113.92 11.52,-136.96c-2.03,-3.09 -4.05,-6.08 -5.97,-9.07c-12.27,-18.13 -21.87,-32.42 -15.36,-62.61c1.28,-5.76 -2.46,-11.41 -8.22,-12.69c-0.53,-0.11 -0.96,-0.22 -1.49,-0.22c-0.32,0 -28.91,-2.45 -45.55,-24.53c5.23,-10.67 20.06,-35.52 44.06,-33.81c22.4,1.49 38.61,-2.03 49.17,-5.97c0.85,15.36 -1.49,42.13 -22.61,68.26c-3.74,4.59 -2.99,11.31 1.6,15.04c2.34,1.92 5.44,2.67 8.42,2.24c0.22,0 25.6,-3.62 72.86,21.66c3.2,1.7 6.93,1.7 10.02,0c47.15,-25.28 72.54,-21.76 72.64,-21.66c5.76,1.07 11.31,-2.77 12.48,-8.53c0.54,-3.09 -0.21,-6.19 -2.13,-8.64c-21.23,-26.35 -23.57,-52.91 -22.72,-68.27c10.56,3.84 26.77,7.47 49.28,5.98c24,-1.71 38.83,23.14 44.05,33.81c-16.42,21.97 -45.12,24.32 -45.33,24.42z" id="svg_3"/>
   </g>
  </g>
 </g>

</svg>