<?xml version="1.0" ?><!-- Uploaded to: SVG Repo, www.svgrepo.com, Generator: SVG Repo Mixer Tools -->
<svg fill="#000000" width="16" height="16" viewBox="0 0 32 32" id="Outline" xmlns="http://www.w3.org/2000/svg"><path d="M25.44,28.75H6.56a1.59,1.59,0,0,1-1.19-.54A1.56,1.56,0,0,1,5,27c.18-1.53.73-4.33,2.3-6A3.71,3.71,0,0,0,8,18.11a6.22,6.22,0,0,0-1.61-3.76A.76.76,0,0,1,6,13.74a.75.75,0,0,1,.31-.63c.86-.61,2.08-1.83,2.11-2.61V4a.76.76,0,0,1,.75-.75h4A.75.75,0,0,1,13.9,4V9a2.1,2.1,0,0,0,.65,1.52,1.77,1.77,0,0,0,1.33.5h.18a1.85,1.85,0,0,0,1.39-.5A2.1,2.1,0,0,0,18.1,9V4a.75.75,0,0,1,.75-.75h4a.76.76,0,0,1,.75.75v6.53c0,.75,1.25,2,2.11,2.58a.75.75,0,0,1,.31.63.76.76,0,0,1-.33.61,6.22,6.22,0,0,0-1.61,3.76A3.71,3.71,0,0,0,24.72,21h0c1.57,1.64,2.12,4.44,2.3,6a1.56,1.56,0,0,1-.39,1.26A1.59,1.59,0,0,1,25.44,28.75Zm-17.56-15A8.82,8.82,0,0,1,9.44,18,4.89,4.89,0,0,1,8.36,22c-1.31,1.38-1.76,4-1.9,5.13l.1.11H25.44l.1-.11c-.14-1.09-.59-3.75-1.9-5.13A4.89,4.89,0,0,1,22.56,18a8.82,8.82,0,0,1,1.56-4.16c-.8-.7-2-1.95-2.05-3.23V4.75H19.6V9a3.6,3.6,0,0,1-1.12,2.61,3.24,3.24,0,0,1-2.45.91,3.3,3.3,0,0,1-2.51-.91A3.6,3.6,0,0,1,12.4,9V4.75H9.93v5.78C9.88,11.83,8.68,13.09,7.88,13.79Z"/></svg>