<svg width="80" height="80" viewBox="0 0 80 80" fill="none" xmlns="http://www.w3.org/2000/svg">
<path d="M46.3123 19.5335H39.7865H32.0825C30.188 19.5335 28.4702 22.3293 27.6513 24.1426C27.4854 24.51 27.3795 24.899 27.3104 25.2962C26.2665 31.2958 24.3168 43.5358 24.1065 44.6925C23.8346 46.1881 23.9706 47.5024 25.8739 47.5024C27.3966 47.5024 28.0794 46.3845 28.2304 45.8256L31.32 27.5904C31.3677 27.3085 31.612 27.1021 31.8979 27.1021C32.2571 27.1021 32.5318 27.4223 32.4773 27.7773L28.6749 52.5341C28.4412 54.0558 29.6186 55.4278 31.1581 55.4278C32.5625 55.4278 33.6942 56.5791 33.6701 57.9832L33.3684 75.5987C33.3571 76.2584 33.432 76.9679 33.9543 77.3711C34.3926 77.7095 35.086 78 36.1158 78C37.0508 78 37.7317 77.7605 38.2017 77.4631C38.875 77.0371 39.0161 76.1847 39.0161 75.388V56.0623C39.0161 55.7119 39.3002 55.4278 39.6506 55.4278C40.001 55.4278 40.285 55.7119 40.285 56.0623V76.5951C40.3303 77.0634 40.9557 78 43.0947 78C45.2337 78 45.8893 77.0634 45.9498 76.5951V57.756C45.9498 56.4702 46.9921 55.4278 48.2779 55.4278C49.7163 55.4278 50.8105 54.1365 50.5744 52.7176L46.3897 27.5675C46.3442 27.2937 46.4901 27.0239 46.7441 26.9121C47.1023 26.7545 47.5139 26.972 47.5855 27.3567L51.0254 45.8256C51.2369 46.5809 52.0586 47.9738 53.6538 47.5024C55.249 47.0311 55.527 45.9162 55.4665 45.4177C54.4847 40.3719 52.3487 28.0357 51.6598 24.1563C50.971 20.2768 47.8078 19.458 46.3123 19.5335Z" fill="#D9D9D9"/>
<path d="M46.314 9.20631C46.314 13.1862 43.0876 16.4126 39.1077 16.4126C35.1277 16.4126 31.9014 13.1862 31.9014 9.20631C31.9014 5.22637 35.1277 2 39.1077 2C43.0876 2 46.314 5.22637 46.314 9.20631Z" fill="#D9D9D9"/>
</svg>
