<svg width="80" height="80" viewBox="0 0 80 80" fill="none" xmlns="http://www.w3.org/2000/svg">
<path d="M46.3298 25.5472H39.7989H32.0888C30.1927 25.5472 28.4734 28.3456 27.654 30.1603C27.488 30.5278 27.3826 30.9172 27.3112 31.314C26.2661 37.1243 24.3169 46.4377 24.1066 47.5947C23.8345 49.0914 23.9705 50.4068 25.8754 50.4068C27.3992 50.4068 28.0826 49.288 28.2338 48.7286L31.3129 33.5917C31.3685 33.3182 31.609 33.1218 31.888 33.1218C32.253 33.1218 32.5295 33.4513 32.466 33.8107L28.7453 54.8844C28.4785 56.3959 29.6412 57.7819 31.1761 57.7819C32.5691 57.7819 33.6861 58.9338 33.6434 60.3261L33.3906 68.5561C33.3695 69.2429 33.4437 69.9848 33.9947 70.3954C34.4349 70.7233 35.1199 71 36.1252 71C37.0616 71 37.7432 70.76 38.2136 70.4621C38.8867 70.0359 39.0279 69.1836 39.0279 68.3869V58.4169C39.0279 58.0662 39.3121 57.7819 39.6628 57.7819C40.0135 57.7819 40.2978 58.0662 40.2978 58.4169V69.5939C40.3431 70.0626 40.969 71 43.1097 71C45.2504 71 45.9065 70.0626 45.9669 69.5939V60.081C45.9669 58.8113 46.9963 57.7819 48.266 57.7819C49.709 57.7819 50.7952 56.4682 50.5242 55.0509L46.4218 33.6029C46.3679 33.3214 46.5158 33.0399 46.7782 32.9245C47.133 32.7683 47.542 32.9754 47.6262 33.3538L51.0465 48.7286C51.2582 49.4845 52.0806 50.8785 53.677 50.4068C55.2735 49.9351 55.5516 48.8193 55.4912 48.3204C54.5085 43.2707 52.3708 34.0561 51.6815 30.1736C50.9921 26.2911 47.8264 25.4716 46.3298 25.5472Z" fill="#D9D9D9"/>
<path d="M46.3311 15.2119C46.3311 19.195 43.1022 22.4239 39.1192 22.4239C35.1361 22.4239 31.9072 19.195 31.9072 15.2119C31.9072 11.2289 35.1361 8 39.1192 8C43.1022 8 46.3311 11.2289 46.3311 15.2119Z" fill="#D9D9D9"/>
</svg>
