<svg width="80" height="80" viewBox="0 0 80 80" fill="none" xmlns="http://www.w3.org/2000/svg">
<path d="M45.3555 23.2099H39.6945H33.0114C31.2023 23.2099 29.5788 26.1489 28.977 27.6547C28.9669 27.68 28.96 27.7042 28.9553 27.7311C28.0748 32.7252 26.2806 42.8938 26.0924 43.929C25.8565 45.2264 25.9745 46.3665 27.6256 46.3665C28.9465 46.3665 29.5388 45.3968 29.6698 44.9119L32.3611 30.1085C32.3962 29.9157 32.5641 29.7756 32.7601 29.7756H32.9713C33.2198 29.7756 33.4098 29.997 33.3721 30.2426L29.7416 53.8805C29.7038 54.1261 29.8939 54.3475 30.1423 54.3475H34.0133C34.2403 54.3475 34.423 54.5338 34.4187 54.7608L34.1134 70.7135C34.1126 70.7583 34.1183 70.803 34.1355 70.8444C34.3111 71.2659 34.9856 72 36.5102 72C38.0224 72 38.7682 71.2778 38.9913 70.8547C39.0164 70.8071 39.0262 70.7535 39.0262 70.6997V54.753C39.0262 54.5291 39.2077 54.3475 39.4317 54.3475H39.7214C39.9454 54.3475 40.1269 54.5291 40.1269 54.753V70.7812C40.1662 71.1875 40.7087 72 42.5643 72C44.4198 72 44.9885 71.1875 45.041 70.7812V54.753C45.041 54.5291 45.2225 54.3475 45.4464 54.3475H48.9654C49.2159 54.3475 49.4065 54.1226 49.3654 53.8755L45.4072 30.0864C45.3767 29.9035 45.4742 29.7233 45.6438 29.6487L45.8761 29.5465C46.1134 29.4421 46.3863 29.5841 46.437 29.8383L49.4439 44.9119C49.6274 45.5671 50.3403 46.7754 51.7241 46.3665C53.1079 45.9577 53.349 44.9905 53.2966 44.5581C52.4448 40.181 50.5919 30.5855 49.9943 27.2201C49.3968 23.8547 46.6528 23.1444 45.3555 23.2099Z" fill="#D9D9D9"/>
<path d="M45.3571 14.2513C45.3571 17.7038 42.5583 20.5026 39.1058 20.5026C35.6533 20.5026 32.8545 17.7038 32.8545 14.2513C32.8545 10.7988 35.6533 8 39.1058 8C42.5583 8 45.3571 10.7988 45.3571 14.2513Z" fill="#D9D9D9"/>
</svg>
