<svg width="80" height="80" viewBox="0 0 80 80" fill="none" xmlns="http://www.w3.org/2000/svg">
<path d="M48.807 14.8264C48.807 19.1487 45.303 22.6527 40.9807 22.6527C36.6583 22.6527 33.1543 19.1487 33.1543 14.8264C33.1543 10.504 36.6583 7 40.9807 7C45.303 7 48.807 10.504 48.807 14.8264Z" fill="#D9D9D9"/>
<path d="M59.3275 37.247C58.0736 28.8879 52.944 22.9822 49.1766 20.6799C48.58 20.3152 47.8227 20.5981 47.3661 21.1277C46.3037 22.3603 44.2397 23.7595 41.0423 23.5829C37.7788 23.4027 35.7612 22.0261 34.773 20.922C34.3723 20.4742 33.7631 20.1896 33.1989 20.3961C30.6468 21.33 26.1163 23.8806 23.788 29.164C17.341 42.2507 23.9805 49.6601 24.8144 50.2054C25.6484 50.7507 27.0299 50.2054 27.3506 49.2752C22.9529 43.4041 24.0913 39.131 25.2223 33.9292C25.2652 33.7319 25.5272 33.5904 25.729 33.5904C26.0356 33.5904 26.1558 33.9042 26.0475 34.191C23.3784 41.2626 26.3936 48.0092 30.1367 50.879C32.9487 52.75 40.7216 55.6325 49.3178 52.1941C57.7821 48.8083 55.9941 38.6762 53.9673 33.8138C53.9048 33.6638 53.7901 33.6279 53.9135 33.5222C54.2494 33.2348 54.9027 33.6097 55.0899 34.0102C58.1773 40.6191 55.732 47.5132 54.0649 50.2054C53.9687 50.5582 54.4726 51.9467 56.7592 51.2639C59.552 50.4299 59.7124 39.813 59.3275 37.247Z" fill="#D9D9D9"/>
<path d="M52.2002 49.2636C50.0882 51.3623 44.3798 52.3513 41.5449 52.6012C41.4785 52.607 41.4297 52.6624 41.4297 52.7291V70.5732C41.4297 70.9795 42.084 71.8305 44.7014 71.9845C47.3187 72.1385 48.2724 71.1078 48.4221 70.5732C49.5035 65.2797 51.7633 53.9229 52.4555 49.38C52.4755 49.2489 52.2942 49.1702 52.2002 49.2636Z" fill="#D9D9D9"/>
<path d="M29.7608 49.2636C31.8727 51.3623 37.5812 52.3513 40.416 52.6012C40.4825 52.607 40.5312 52.6624 40.5312 52.7291V70.5732C40.5312 70.9795 39.8769 71.8305 37.2596 71.9845C34.6422 72.1385 33.6885 71.1078 33.5388 70.5732C32.4575 65.2797 30.1976 53.9229 29.5055 49.38C29.4855 49.2489 29.6667 49.1702 29.7608 49.2636Z" fill="#D9D9D9"/>
<path d="M26.3178 56.2822L27.4413 47.8464C27.5077 47.5922 27.7373 47.4148 28 47.4148L53.4791 47.6717C53.7015 47.6717 53.9041 47.7994 54 48L55.5639 56.1789C55.7472 56.5621 55.4679 57.0053 55.0431 57.0053H26.8765C26.4984 57.0053 26.2224 56.648 26.3178 56.2822Z" fill="#D9D9D9"/>
</svg>
