<svg width="80" height="80" viewBox="0 0 80 80" fill="none" xmlns="http://www.w3.org/2000/svg">
<circle cx="40.1258" cy="14.7264" r="7.72636" fill="#D9D9D9"/>
<path d="M58.2385 37.8606C56.9753 29.4393 51.7275 23.5403 47.9906 21.37C47.5193 21.0962 46.9333 21.3173 46.5962 21.7456C45.6048 23.0053 43.5195 24.5551 40.187 24.3711C37.367 24.2154 35.4893 23.1548 34.4106 22.1617C33.7215 21.5273 32.7605 21.0811 31.9091 21.4715C29.4717 22.5893 25.8495 25.2091 23.721 30.0392C16.7418 46.4608 25.2896 52.0482 26.1524 52.6122L26.1593 52.6166C26.9826 53.155 28.3464 52.6166 28.663 51.6983C23.0324 46.9855 23.4819 39.8438 24.5712 34.5838C24.6116 34.3886 24.8701 34.2507 25.0694 34.2507C25.3721 34.2507 25.4907 34.5604 25.3838 34.8436C22.7488 41.8248 25.7255 48.4853 29.4208 51.3184C32.1968 53.1655 39.8704 56.0112 48.3567 52.6166C56.7129 49.2742 54.9478 39.2715 52.9469 34.4712C52.8852 34.3232 52.7719 34.2877 52.8937 34.1834C53.2253 33.8997 53.8703 34.2697 54.0551 34.6651C57.1031 41.1896 54.689 47.9956 53.0432 50.6534C52.9482 51.0017 53.4457 52.3724 55.7031 51.6983C58.4602 50.875 58.6185 40.3938 58.2385 37.8606Z" fill="#D9D9D9"/>
<path d="M51.5256 49.355C49.7523 51.7109 43.4826 52.7854 40.5693 53.0282V70.7608C40.5693 71.1619 41.2153 72.0021 43.7992 72.1541C46.3831 72.3061 47.3246 71.2886 47.4724 70.7608C48.5807 65.3355 50.9429 53.4588 51.5256 49.355Z" fill="#D9D9D9"/>
<path d="M28.7264 49.355C30.4996 51.7109 36.7694 52.7854 39.6826 53.0282V70.7608C39.6826 71.1619 39.0366 72.0021 36.4527 72.1541C33.8688 72.3061 32.9273 71.2886 32.7796 70.7608C31.6713 65.3355 29.309 53.4588 28.7264 49.355Z" fill="#D9D9D9"/>
</svg>
