<svg width="80" height="80" viewBox="0 0 80 80" fill="none" xmlns="http://www.w3.org/2000/svg">
<circle cx="39.4532" cy="13.6007" r="6.60065" fill="#D9D9D9"/>
<path d="M44.9242 22.1281H34.6842C31.3006 22.4842 30.3347 25.2581 28.9472 29.2429L28.9399 29.2639C27.8267 32.4607 27.929 41.3472 28.1193 45.3909C28.1787 45.9855 28.5902 47.1748 29.7605 47.1748C30.9308 47.1748 31.3185 45.9855 31.3661 45.3909C31.3185 42.9647 31.2519 37.463 31.3661 34.8655C31.4803 32.2681 32.3413 29.6445 32.7576 28.6573V70.8658C32.7219 71.3297 33.2214 72.2573 35.5049 72.2573C37.3887 72.2573 38.0024 71.3297 38.0738 70.8658V44.9271H40.9995V70.8658C40.8924 71.3297 41.2992 72.2573 43.7824 72.2573C45.5236 72.2573 46.1492 71.3297 46.2443 70.8658C46.2562 57.4267 46.2728 30.3414 46.2443 29.5136C46.2086 28.4789 46.3513 28.4076 46.6011 28.6573C47.9426 32.2538 47.9212 41.3116 47.7428 45.3909C47.7428 46.0093 48.0568 47.2319 49.3127 47.1748C50.5686 47.1178 50.9064 45.9618 50.9183 45.3909C51.061 42.8101 51.1181 36.1785 50.2047 30.2986C49.2913 24.4187 46.3038 22.4016 44.9242 22.1281Z" fill="#D9D9D9"/>
</svg>
