<svg width="80" height="80" viewBox="0 0 80 80" fill="none" xmlns="http://www.w3.org/2000/svg">
<circle cx="39.511" cy="15.2103" r="7.21026" fill="#D9D9D9"/>
<path d="M45.4872 24.5251H34.3016C30.6055 24.9142 29.5504 27.9443 28.0347 32.2971L28.0267 32.32C26.8107 35.8121 26.9224 44.0829 27.1303 48.5C27.1952 49.1496 27.6447 50.4487 28.9231 50.4487C30.2015 50.4487 30.625 49.1496 30.677 48.5C30.625 45.8497 30.5522 41.2763 30.677 38.439C30.8017 35.6017 31.7422 32.7357 32.1969 31.6575V69.5C32.158 70.0067 32.7036 71.02 35.198 71.02C37.2558 71.02 37.9262 70.0067 38.0041 69.5V49.4298H41.2V69.5C41.0831 70.0067 41.5274 71.02 44.24 71.02C46.142 71.02 46.8253 70.0067 46.9293 69.5C46.9422 54.8197 46.9604 33.497 46.9293 32.5928C46.8903 31.4626 47.0462 31.3846 47.319 31.6575C48.7844 35.5861 48.761 44.0439 48.5662 48.5C48.5662 49.1756 48.9092 50.5111 50.281 50.4487C51.6529 50.3864 52.0219 49.1236 52.0349 48.5C52.1908 45.6809 52.2532 39.8732 51.2554 33.4503C50.2577 27.0273 46.9942 24.8239 45.4872 24.5251Z" fill="#D9D9D9"/>
</svg>
