<svg width="80" height="80" viewBox="0 0 80 80" fill="none" xmlns="http://www.w3.org/2000/svg">
<circle cx="39.6429" cy="9.21026" r="7.21026" fill="#D9D9D9"/>
<path d="M45.6189 18.5251H34.4333C30.7372 18.9142 29.6821 21.9443 28.1664 26.2971L28.1584 26.32C26.9424 29.8121 26.8849 41.3511 27.0928 45.7682C27.1577 46.4178 27.6072 47.7169 28.8856 47.7169C30.1639 47.7169 30.5875 46.4178 30.6394 45.7682C30.5875 43.118 30.684 35.2763 30.8087 32.439C30.9334 29.6017 31.874 26.7357 32.3287 25.6575L32.1594 76.48C32.1205 76.9867 32.6661 78 35.1605 78C37.2183 78 37.8887 76.9867 37.9666 76.48V45.2616H41.1625V76.48C41.0456 76.9867 41.4899 78 44.2025 78C46.1045 78 46.7878 76.9867 46.8917 76.48C46.9047 61.7997 47.0922 27.497 47.061 26.5928C47.022 25.4626 47.1779 25.3846 47.4507 25.6575C48.9162 29.5861 48.7235 41.3122 48.5287 45.7682C48.5287 46.4438 48.8716 47.7793 50.2435 47.7169C51.6154 47.6546 51.9844 46.3918 51.9974 45.7682C52.1533 42.9491 52.3849 33.8732 51.3871 27.4503C50.3894 21.0273 47.1259 18.8239 45.6189 18.5251Z" fill="#D9D9D9"/>
</svg>
