<svg
    width="60"
    height="60"
    viewBox="0 0 60 60"
    fill="none"
    xmlns="http://www.w3.org/2000/svg"
>
    <path
        fill-rule="evenodd"
        clip-rule="evenodd"
        d="M12.42 29.6594C15.4832 25.7862 21.9992 20 30.0544 20C38.1983 20 44.2521 25.9142 46.9336 29.7865C47.4431 30.5222 47.3801 31.4991 46.7666 32.1507C44.0062 35.0826 38.0335 39.3819 30.0544 39.3819C22.1592 39.3819 15.7427 35.1725 12.6067 32.2435C11.8731 31.5584 11.7974 30.4467 12.42 29.6594ZM29.5191 37.9898C34.0728 37.9898 37.7644 34.2982 37.7644 29.7444C37.7644 25.1907 34.0728 21.4991 29.5191 21.4991C24.9653 21.4991 21.2737 25.1907 21.2737 29.7444C21.2737 34.2982 24.9653 37.9898 29.5191 37.9898Z"
        fill="#69717C"></path>
    <path
        fill-rule="evenodd"
        clip-rule="evenodd"
        d="M28.3559 35.4705C31.5184 36.2312 34.6988 34.2843 35.4596 31.1218C35.783 29.7777 35.6172 28.4303 35.0768 27.2668C35.0805 27.4998 35.0552 27.7371 34.9982 27.9741C34.6335 29.4901 33.109 30.4234 31.593 30.0587C30.0771 29.694 29.1438 28.1695 29.5084 26.6535C29.8323 25.3074 31.0706 24.4207 32.4054 24.4942C32.0025 24.2896 31.5695 24.1284 31.1109 24.0181C27.9485 23.2574 24.768 25.2043 24.0073 28.3668C23.2465 31.5293 25.1935 34.7097 28.3559 35.4705Z"
        fill="#69717C"></path>
</svg>