<svg
    width="60"
    height="60"
    viewBox="0 0 60 60"
    fill="none"
    xmlns="http://www.w3.org/2000/svg"
>
    <path
        d="M16.9356 28.7739C17.1525 27.3502 16.0506 26.0676 14.6104 26.0676C13.5552 26.0676 12.6291 26.7705 12.3452 27.7868L12.1262 28.5707C11.9578 29.1734 11.9578 29.8108 12.1262 30.4135L12.3452 31.1974C12.6291 32.2138 13.5552 32.9166 14.6104 32.9166C16.0506 32.9166 17.1525 31.634 16.9356 30.2103L16.8865 29.8885C16.8465 29.6258 16.8465 29.3585 16.8865 29.0957L16.9356 28.7739Z"
        fill="#69717C"></path>
    <path
        d="M43.1025 28.7739C42.8856 27.3502 43.9875 26.0676 45.4277 26.0676C46.4829 26.0676 47.409 26.7705 47.6929 27.7868L47.9119 28.5707C48.0803 29.1734 48.0803 29.8108 47.9119 30.4135L47.6929 31.1974C47.409 32.2138 46.4829 32.9166 45.4277 32.9166C43.9875 32.9166 42.8856 31.634 43.1025 30.2103L43.1516 29.8885C43.1916 29.6258 43.1916 29.3585 43.1516 29.0957L43.1025 28.7739Z"
        fill="#69717C"></path>
    <path
        d="M44.2781 31.4438V25.3431C44.2781 17.4216 37.8564 11 29.9349 11C22.0134 11 15.5918 17.4216 15.5918 25.3431V31.4438C15.5918 36.4002 17.9369 41.0644 21.9153 44.0205L25.6767 46.8154C28.2048 48.694 31.6651 48.694 34.1932 46.8154L37.9546 44.0205C41.933 41.0644 44.2781 36.4002 44.2781 31.4438Z"
        fill="#69717C"></path>
</svg>